<svg id="MilB_Logo_Lockup" data-name="MilB Logo Lockup" xmlns="http://www.w3.org/2000/svg" width="159" height="53" viewBox="0 0 159 53">
  <g id="Group_1" data-name="Group 1" transform="translate(0 2.908)">
    <path id="Path_1" data-name="Path 1" d="M405.842,227.337,405.2,228.4l-.638-1.066h-.4V229.3h.4v-1.172l.522.872h.221l.522-.872V229.3h.4v-1.964Zm-1.922,0h-1.568v.4h.583v1.56h.4v-1.56h.583Z" transform="translate(-321.24 -181.434)" fill="#fff"/>
    <path id="Path_2" data-name="Path 2" d="M77.925.092H7.088a7.138,7.138,0,0,0-5.022,2.04A7.06,7.06,0,0,0,0,7.189V38.8a7.009,7.009,0,0,0,2.056,5.034,7.1,7.1,0,0,0,5.031,2.08l70.838,0A7.1,7.1,0,0,0,85,38.8V7.186A7.043,7.043,0,0,0,77.925.092Z" transform="translate(0 0)" fill="#fff"/>
    <path id="Path_3" data-name="Path 3" d="M168.156,48.667V17.058a4.553,4.553,0,0,0-4.583-4.6H152.448L134.257,29.765a9.429,9.429,0,0,0-3.468,3.679l-1.074-.422-.9.921-.647-.813a7.56,7.56,0,0,1,1.464-1.267l1.314-.537-1.184-.494-.171.516-1.39.4-.26.515-.419-.74.462-1.089-.466-.161-.965.671-.907,0-.838-2.259c.452-.5.968-.9.956-.757l1.371.918,2.414-1.237-.656-.436.964-.918.294-1.506-1.924.423,1.842-1.8a1.743,1.743,0,0,0-.524-1.156c-.213-.2.416.869-.689,1-3.835.456-7.6,2.056-11.276,8.174a1.683,1.683,0,0,1-1.018-.384,9.033,9.033,0,0,1,.426-1.73c1.409-3.951,5.069-6.416,7.9-7.414l.215-.568a13.311,13.311,0,0,0-4.5,1.158c-1.142-.542-.513-2.253-2.311-3.141-.627-.31-3.807-.474-5.071,3.44a12.079,12.079,0,0,0,.2,3.927,12.574,12.574,0,0,0,.957,2.644,7.4,7.4,0,0,0,1.413,1.99,4.53,4.53,0,0,0-.026.7,4.633,4.633,0,0,0,1.123.4,1.73,1.73,0,0,0,.616,1.356c1.353.919,3.057,2.939,4.655,1.8.387.353.759.739,1.136,1.118l.6.593a4.565,4.565,0,0,0,1.035.73l.708.314-4.244,4.188-1.831,1.8-.64.629a2.815,2.815,0,0,1,.352.4c.067.134.107,1.245.148,1.4a.635.635,0,0,1-.006.4c-.042.074-2.12-1.019-6.8,2.8a5.18,5.18,0,0,1-1.122.794c-.358.177-1.917.137-2.776.72a5.1,5.1,0,0,0-1.433,1.84h2.383a5.587,5.587,0,0,1,1.5-1.359c.548-.356,1.831-.337,2.4-.625.94-.48,1.965-1.844,3.835-2.491,1.122-.386,3.332-.274,3.721-1.319.408-1.108,2.127-1.264,3.432-2.2,1.2.225,2.359.441,3.4.647,2.958.586,4.692,1.093,3.894,1.58a55.767,55.767,0,0,1-12.2,5.769h25.749c-.774-.614-1.434-1.163-1.837-1.551-.13-.187,2.962-3.882,9.319-6.431,0-.131,0-.265,0-.388a11.661,11.661,0,0,0-5.886,1.706,13.444,13.444,0,0,0,.426-3.894l-.343-.084c-1.334,3.954-7.606,8.187-7.606,8.187l-1.275-.369c.18-1.152-.1-2.716-1.232-3.329a23.392,23.392,0,0,0-8.446-2.529,17.02,17.02,0,0,1-4.023-.936,7.692,7.692,0,0,0,3.961-4.241,12.5,12.5,0,0,1,6.768-8.046l.388-1.03a9.229,9.229,0,0,1,2.989-.481c9.683.015,14.2,7.526,15.3,9.258.763,1.284,4.125,8.514,7.012,14.159h2.68a4.6,4.6,0,0,0,4.58-4.629Z" transform="translate(-85.657 -9.87)" fill="#041e42"/>
    <path id="Path_4" data-name="Path 4" d="M47.521,36.656c-.365-.368-.726-.74-1.1-1.081-1.6,1.135-3.3-.885-4.657-1.805a1.729,1.729,0,0,1-.616-1.356,4.6,4.6,0,0,1-1.123-.4,4.533,4.533,0,0,1,.026-.7,7.4,7.4,0,0,1-1.413-1.991,12.618,12.618,0,0,1-.957-2.645c-1-4.895.783-8.042,3.422-9.708.7-.4,1.1-.575,1.425-.729a9.394,9.394,0,0,1,7.9.286,10.167,10.167,0,0,1,5.038,5.765,1.56,1.56,0,0,1,1.052.1c.315.2.766,1.884,1.074,3.209l11.977-13.15H16.948a4.668,4.668,0,0,0-3.281,1.33,4.6,4.6,0,0,0-1.317,3.276V48.67a4.537,4.537,0,0,0,1.317,3.263,4.636,4.636,0,0,0,3.281,1.36H26.91c1.18-1.727,3.714-3.9,4.118-3.917a15.876,15.876,0,0,1,1.8.349c.137-.552-.136-.838.145-1.289a12.924,12.924,0,0,1,4.292-3.289,1.02,1.02,0,0,1,1.017-1.256,6.308,6.308,0,0,0,1.534.289,2.783,2.783,0,0,1,.848,0Z" transform="translate(-9.86 -9.87)" fill="#bc0022"/>
    <path id="Path_5" data-name="Path 5" d="M35.735,50.666l.453-4.194-2.878,3.062-3.732-1.763,2.012,3.594-2.867,3.052,4.2-.761,2.047,3.706.488-4.145,4.132-.77Zm59.656,2.552.489,4.145,2.049-3.706,4.2.761-2.869-3.052,2.013-3.594-3.73,1.763-2.882-3.062.455,4.194L91.26,52.447ZM43,36.574,41.644,32.5,40.4,36.574H36.041l3.6,2.636-1.309,4.183,3.459-2.624,3.552,2.5L43.9,39.138l3.474-2.563Zm44.848,0L89.21,32.5l1.247,4.072h4.356l-3.6,2.636,1.309,4.183-3.459-2.624-3.553,2.5,1.441-4.132L83.48,36.574Z" transform="translate(-22.933 -25.876)" fill="#fff"/>
    <path id="Path_6" data-name="Path 6" d="M77.926.092H7.088a7.138,7.138,0,0,0-5.022,2.04A7.06,7.06,0,0,0,0,7.189V38.8a7.009,7.009,0,0,0,2.056,5.034,7.1,7.1,0,0,0,5.031,2.08l70.838,0A7.1,7.1,0,0,0,85,38.8V7.186A7.043,7.043,0,0,0,77.926.092Z" transform="translate(0 0)" fill="#fff"/>
    <path id="Path_7" data-name="Path 7" d="M168.155,48.668V17.058a4.553,4.553,0,0,0-4.583-4.6H152.447L134.255,29.765a9.43,9.43,0,0,0-3.468,3.679l-1.075-.422-.9.921-.646-.813a7.554,7.554,0,0,1,1.464-1.267l1.314-.537-1.184-.494-.171.516-1.39.4-.26.515-.419-.74.462-1.089-.466-.161-.965.671-.907,0-.838-2.259c.452-.5.968-.9.956-.757l1.371.918,2.414-1.237-.656-.436.964-.918.294-1.506-1.924.423,1.842-1.8a1.743,1.743,0,0,0-.524-1.156c-.214-.2.416.869-.689,1-3.835.456-7.6,2.056-11.276,8.174a1.687,1.687,0,0,1-1.019-.384,9.03,9.03,0,0,1,.426-1.73c1.409-3.951,5.069-6.416,7.9-7.414l.214-.568a13.311,13.311,0,0,0-4.5,1.158c-1.142-.542-.513-2.253-2.311-3.141-.627-.31-3.807-.474-5.071,3.44a12.079,12.079,0,0,0,.2,3.927,12.575,12.575,0,0,0,.957,2.644,7.4,7.4,0,0,0,1.413,1.99,4.528,4.528,0,0,0-.026.7,4.633,4.633,0,0,0,1.123.4,1.73,1.73,0,0,0,.616,1.356c1.353.919,3.057,2.939,4.655,1.8.387.353.759.739,1.136,1.118l.6.593a4.565,4.565,0,0,0,1.035.73l.708.314-4.244,4.188-1.831,1.8-.64.629a2.814,2.814,0,0,1,.352.4c.067.134.107,1.245.148,1.4a.635.635,0,0,1-.006.4c-.042.074-2.12-1.019-6.8,2.8a5.191,5.191,0,0,1-1.121.794c-.358.177-1.918.137-2.776.72a5.1,5.1,0,0,0-1.433,1.84h2.383a5.587,5.587,0,0,1,1.5-1.359c.548-.356,1.831-.337,2.4-.625.94-.48,1.965-1.844,3.835-2.491,1.122-.386,3.332-.274,3.721-1.319.408-1.108,2.127-1.264,3.432-2.2,1.2.225,2.359.441,3.4.647,2.958.586,4.692,1.093,3.894,1.58a55.768,55.768,0,0,1-12.2,5.769h25.749c-.774-.614-1.434-1.163-1.837-1.551-.13-.187,2.962-3.882,9.319-6.431,0-.131,0-.265,0-.388a11.665,11.665,0,0,0-5.887,1.706,13.445,13.445,0,0,0,.426-3.894l-.343-.084c-1.334,3.954-7.606,8.187-7.606,8.187l-1.275-.369c.18-1.152-.1-2.716-1.232-3.329a23.392,23.392,0,0,0-8.446-2.529,17.02,17.02,0,0,1-4.023-.936,7.692,7.692,0,0,0,3.961-4.241,12.5,12.5,0,0,1,6.768-8.046l.388-1.03a9.229,9.229,0,0,1,2.989-.481c9.683.015,14.2,7.526,15.3,9.258.763,1.284,4.125,8.514,7.012,14.159h2.68a4.6,4.6,0,0,0,4.581-4.628Z" transform="translate(-85.654 -9.87)" fill="#041e42"/>
    <path id="Path_8" data-name="Path 8" d="M47.519,36.656c-.365-.368-.726-.74-1.1-1.081-1.6,1.135-3.3-.885-4.657-1.805a1.729,1.729,0,0,1-.616-1.356,4.6,4.6,0,0,1-1.123-.4,4.561,4.561,0,0,1,.026-.7,7.407,7.407,0,0,1-1.413-1.991,12.607,12.607,0,0,1-.957-2.645c-1-4.895.783-8.042,3.421-9.708.7-.4,1.1-.575,1.425-.729a9.394,9.394,0,0,1,7.9.286,10.167,10.167,0,0,1,5.038,5.765,1.561,1.561,0,0,1,1.052.1c.315.2.766,1.884,1.075,3.209l11.977-13.15H16.945a4.668,4.668,0,0,0-3.281,1.33,4.6,4.6,0,0,0-1.317,3.276V48.671a4.537,4.537,0,0,0,1.317,3.263,4.637,4.637,0,0,0,3.281,1.36h9.962c1.18-1.727,3.714-3.9,4.118-3.917a15.876,15.876,0,0,1,1.8.349c.137-.552-.136-.838.145-1.289a12.921,12.921,0,0,1,4.292-3.289,1.019,1.019,0,0,1,1.017-1.256,6.318,6.318,0,0,0,1.534.289,2.771,2.771,0,0,1,.848,0Z" transform="translate(-9.858 -9.87)" fill="#bc0022"/>
    <path id="Path_9" data-name="Path 9" d="M35.735,50.667l.453-4.195-2.878,3.062-3.732-1.762,2.012,3.594-2.867,3.053,4.2-.762,2.046,3.706.488-4.145,4.133-.77Zm59.656,2.551.489,4.145,2.049-3.706,4.2.762-2.869-3.053,2.013-3.594-3.73,1.762-2.882-3.062.456,4.195L91.26,52.447ZM43,36.574,41.644,32.5,40.4,36.574H36.041l3.6,2.636-1.309,4.183,3.459-2.624,3.553,2.5L43.9,39.138l3.474-2.563Zm44.849,0L89.21,32.5l1.247,4.072h4.356l-3.6,2.636,1.309,4.183-3.459-2.624-3.553,2.5,1.441-4.132-3.474-2.563Z" transform="translate(-22.933 -25.876)" fill="#fff"/>
  </g>
  <g id="Group_2" data-name="Group 2" transform="translate(-601 92)">
    <text id="MiLB" transform="translate(691 -65)" fill="#fff" font-size="28" font-family="HelveticaNeue-Bold, Helvetica Neue" font-weight="700"><tspan x="0" y="0">MiLB</tspan></text>
    <text id="STORE" transform="translate(692 -44)" fill="#fff" font-size="22" font-family="HelveticaNeue-Thin, Helvetica Neue" font-weight="200"><tspan x="0" y="0">STORE</tspan></text>
  </g>
</svg>
